<svg xmlns="http://www.w3.org/2000/svg" width="1600" height="900" viewBox="0 0 1600 900">
<defs>
  <linearGradient id="silk" x2="1" y2=".2"><stop stop-color="#a40e14"/><stop offset=".32" stop-color="#df211c"/><stop offset=".6" stop-color="#be100f"/><stop offset="1" stop-color="#ed3226"/></linearGradient>
  <linearGradient id="gold"><stop stop-color="#dd9123"/><stop offset=".4" stop-color="#f2c04d"/><stop offset=".65" stop-color="#d99824"/><stop offset="1" stop-color="#ffd46a"/></linearGradient>
  <g id="flower" fill="url(#gold)"><circle r="3"/><path d="M0-3C-11-17 10-17 0-3M3 0C17-11 17 10 3 0M0 3C11 17-10 17 0 3M-3 0C-17 11-17-10-3 0"/><circle r="6" fill="none" stroke="#ffcc52" stroke-width="1"/></g>
  <g id="paisley">
    <path d="M8 18C74-22 87 62 68 89C135 53 122 135 82 156C28 183-10 142-5 105C-1 70 44 59 8 18Z" fill="url(#gold)"/>
    <path d="M17 32C63 7 75 51 61 81C54 97 49 104 61 116C78 106 107 87 104 106C106 130 75 151 49 151C14 151 5 129 11 105C20 82 45 72 39 52C36 44 28 37 17 32Z" fill="none" stroke="#a82413" stroke-width="3"/>
    <path d="M20 105C33 98 31 117 49 120C72 124 87 112 88 112M25 128C53 144 79 127 92 119M39 80C61 57 58 32 38 32" fill="none" stroke="#c13913" stroke-width="2"/>
    <g fill="#b63216"><path d="M30 102l10-9 5 13-10 4ZM45 133l3-11 12 3-4 9ZM65 124l-2-12 12-4 4 9ZM75 139l8-11 8 4-11 9ZM40 56l9-8 4 7-6 8Z"/></g>
    <path d="M3 30C55-6 87 29 79 66M-1 88C-25 163 47 181 86 155" fill="none" stroke="#ffd361" stroke-width="2" stroke-dasharray="2 3"/>
  </g>
  <pattern id="brocade" width="300" height="290" patternUnits="userSpaceOnUse"><use href="#paisley" transform="translate(42 24) rotate(-15)"/><use href="#paisley" transform="translate(265 269) rotate(165) scale(.8)"/><use href="#flower" transform="translate(190 54) scale(1.1)"/><use href="#flower" transform="translate(48 236)"/><use href="#flower" transform="translate(168 177) scale(.85)"/><use href="#flower" transform="translate(14 29) scale(.65)"/><use href="#flower" transform="translate(282 104) scale(.75)"/><path d="M188 76Q220 119 191 151M57 222Q91 207 116 233" fill="none" stroke="#dfa13b" stroke-width="2"/><g fill="#e8ac37"><path d="M209 106q-25-13-20-23 17-1 20 23M208 111q23-19 23-2-4 13-23 2M94 216q-12-21-23-20-4 15 23 20"/></g></pattern>
  <pattern id="weave" width="3" height="3" patternUnits="userSpaceOnUse"><path d="M0 0h3M0 1v2" stroke="#ffbb7040" stroke-width=".3"/></pattern>
</defs>
<path fill="url(#silk)" d="M0 0h1600v900H0z"/><path fill="url(#brocade)" d="M0 0h1600v900H0z"/><path fill="url(#weave)" opacity=".4" d="M0 0h1600v900H0z"/>
</svg>
